<svg width="35" height="35" viewBox="0 0 35 35" fill="none" xmlns="http://www.w3.org/2000/svg">
<path d="M17.5 2.91669C25.55 2.91669 32.0834 9.45002 32.0834 17.5C32.0834 25.55 25.55 32.0834 17.5 32.0834C9.45002 32.0834 2.91669 25.55 2.91669 17.5C2.91669 9.45002 9.45002 2.91669 17.5 2.91669ZM8.78403 22.4821C10.9241 25.6767 14.1387 27.7084 17.7329 27.7084C21.3271 27.7084 24.5417 25.6767 26.6818 22.4821C24.3374 20.2959 21.1914 18.9584 17.7329 18.9584C14.2745 18.9584 11.1285 20.2959 8.78403 22.4821ZM17.5 16.0417C19.9163 16.0417 21.875 14.0829 21.875 11.6667C21.875 9.25045 19.9163 7.29169 17.5 7.29169C15.0837 7.29169 13.125 9.25045 13.125 11.6667C13.125 14.0829 15.0837 16.0417 17.5 16.0417Z" fill="black"/>
</svg>
